<svg xmlns="http://www.w3.org/2000/svg" width="39" height="39" fill="none" viewBox="0 0 39 39"><path fill="#0001FE" d="M19.5 39C30.2696 39 39 30.2696 39 19.5C39 8.73045 30.2696 0 19.5 0C8.73045 0 0 8.73045 0 19.5C0 30.2696 8.73045 39 19.5 39Z"/><path fill="#fff" d="M23.1188 10.5632L17.6636 16.1373V10.5678L23.1188 10.5632Z"/><path fill="#fff" d="M16.1276 10.5632L10.6724 16.1373V10.5678L16.1276 10.5632Z"/><path fill="#fff" d="M30.1139 10.5632L24.6587 16.1373V10.5678L30.1139 10.5632Z"/><path fill="#fff" d="M23.1188 17.7638L17.6636 23.3378V17.7638H23.1188Z"/><path fill="#fff" d="M16.1276 17.7638L10.6724 23.3378V17.7638H16.1276Z"/><path fill="#fff" d="M30.1139 17.7638L24.6587 23.3378V17.7638H30.1139Z"/><path fill="#fff" d="M23.1188 24.9463L17.6636 30.5203V24.9509L23.1188 24.9463Z"/><path fill="#fff" d="M16.1276 24.9463L10.6724 30.5203V24.9509L16.1276 24.9463Z"/><path fill="#fff" d="M30.1139 24.9463L24.6587 30.5203V24.9509L30.1139 24.9463Z"/></svg>